<svg width="1004" height="223" viewBox="0 0 1004 223" fill="none" xmlns="http://www.w3.org/2000/svg">
<mask id="path-1-outside-1_39_2692" maskUnits="userSpaceOnUse" x="300.875" y="55.0804" width="678" height="142" fill="black">
<rect fill="white" x="300.875" y="55.0804" width="678" height="142"/>
<path d="M305.079 151.779L320.69 138.876C328.655 151.301 340.602 158.469 353.664 158.469C366.567 158.469 376.284 152.575 376.284 141.584C376.284 129.955 364.337 128.362 347.292 124.22C330.088 120.079 311.61 114.981 311.61 92.6795C311.61 71.493 329.77 57.9527 352.868 57.9527C372.461 57.9527 387.754 67.192 395.4 79.1393L380.426 92.0423C374.054 82.1659 365.611 75.3161 352.231 75.3161C339.965 75.3161 331.522 81.5287 331.522 90.6087C331.522 100.644 340.283 102.715 355.735 106.22C374.214 110.362 396.356 114.663 396.356 139.513C396.356 161.974 376.603 175.833 353.027 175.833C333.433 175.833 313.999 166.434 305.079 151.779ZM403.181 116.893C403.181 82.1659 425.482 57.9527 456.386 57.9527C487.29 57.9527 509.591 82.1659 509.591 116.893C509.591 138.239 501.149 155.602 487.449 165.956C492.069 172.01 499.874 176.629 508.954 178.859L497.166 193.355C486.653 190.329 475.98 182.523 471.201 173.762C466.581 175.196 461.643 175.833 456.386 175.833C425.482 175.833 403.181 151.62 403.181 116.893ZM489.201 116.893C489.201 92.0423 475.661 75.9533 456.386 75.9533C437.111 75.9533 423.571 92.0423 423.571 116.893C423.571 141.743 437.111 157.832 456.386 157.832C475.661 157.832 489.201 141.743 489.201 116.893ZM523.843 174.08V59.705H544.233V156.239H598.076V174.08H523.843ZM675.148 174.08H658.582L628.634 85.6705V174.08H609.677V59.705H637.714L667.184 147.319L696.654 59.705H724.053V174.08H705.096V85.6705L675.148 174.08ZM778.615 175.833C754.72 175.833 737.994 158.151 737.994 132.345C737.994 107.813 754.561 88.8564 777.818 88.8564C802.031 88.8564 814.934 107.176 814.934 130.114V136.486H756.313C757.747 150.823 766.349 159.584 778.615 159.584C788.013 159.584 795.5 154.805 798.049 146.203L814.456 152.416C808.562 167.071 795.341 175.833 778.615 175.833ZM777.659 104.945C767.782 104.945 760.136 110.839 757.269 122.15H795.659C795.5 112.91 789.765 104.945 777.659 104.945ZM818.923 158.151L833.26 146.681C838.198 154.805 847.756 160.222 857.473 160.222C865.597 160.222 873.084 157.354 873.084 149.867C873.084 142.699 866.075 141.902 852.853 139.194C839.632 136.486 824.498 133.141 824.498 115.3C824.498 100.007 837.879 88.8564 857.154 88.8564C871.81 88.8564 884.872 95.3876 890.925 104.627L878.022 116.256C873.243 108.769 865.279 104.468 856.039 104.468C848.234 104.468 843.136 107.972 843.136 113.547C843.136 119.601 849.189 120.716 859.703 122.946C873.881 125.973 891.722 128.999 891.722 148.115C891.722 165 876.27 175.833 857.314 175.833C841.862 175.833 826.41 169.62 818.923 158.151ZM904.807 174.08V59.705H923.922V99.37C928.701 93.7946 936.188 88.8564 947.02 88.8564C964.543 88.8564 975.057 100.963 975.057 118.964V174.08H955.941V124.539C955.941 114.185 951.799 106.698 941.286 106.698C932.684 106.698 923.922 113.07 923.922 125.017V174.08H904.807Z"/>
</mask>
<path d="M305.079 151.779L320.69 138.876C328.655 151.301 340.602 158.469 353.664 158.469C366.567 158.469 376.284 152.575 376.284 141.584C376.284 129.955 364.337 128.362 347.292 124.22C330.088 120.079 311.61 114.981 311.61 92.6795C311.61 71.493 329.77 57.9527 352.868 57.9527C372.461 57.9527 387.754 67.192 395.4 79.1393L380.426 92.0423C374.054 82.1659 365.611 75.3161 352.231 75.3161C339.965 75.3161 331.522 81.5287 331.522 90.6087C331.522 100.644 340.283 102.715 355.735 106.22C374.214 110.362 396.356 114.663 396.356 139.513C396.356 161.974 376.603 175.833 353.027 175.833C333.433 175.833 313.999 166.434 305.079 151.779ZM403.181 116.893C403.181 82.1659 425.482 57.9527 456.386 57.9527C487.29 57.9527 509.591 82.1659 509.591 116.893C509.591 138.239 501.149 155.602 487.449 165.956C492.069 172.01 499.874 176.629 508.954 178.859L497.166 193.355C486.653 190.329 475.98 182.523 471.201 173.762C466.581 175.196 461.643 175.833 456.386 175.833C425.482 175.833 403.181 151.62 403.181 116.893ZM489.201 116.893C489.201 92.0423 475.661 75.9533 456.386 75.9533C437.111 75.9533 423.571 92.0423 423.571 116.893C423.571 141.743 437.111 157.832 456.386 157.832C475.661 157.832 489.201 141.743 489.201 116.893ZM523.843 174.08V59.705H544.233V156.239H598.076V174.08H523.843ZM675.148 174.08H658.582L628.634 85.6705V174.08H609.677V59.705H637.714L667.184 147.319L696.654 59.705H724.053V174.08H705.096V85.6705L675.148 174.08ZM778.615 175.833C754.72 175.833 737.994 158.151 737.994 132.345C737.994 107.813 754.561 88.8564 777.818 88.8564C802.031 88.8564 814.934 107.176 814.934 130.114V136.486H756.313C757.747 150.823 766.349 159.584 778.615 159.584C788.013 159.584 795.5 154.805 798.049 146.203L814.456 152.416C808.562 167.071 795.341 175.833 778.615 175.833ZM777.659 104.945C767.782 104.945 760.136 110.839 757.269 122.15H795.659C795.5 112.91 789.765 104.945 777.659 104.945ZM818.923 158.151L833.26 146.681C838.198 154.805 847.756 160.222 857.473 160.222C865.597 160.222 873.084 157.354 873.084 149.867C873.084 142.699 866.075 141.902 852.853 139.194C839.632 136.486 824.498 133.141 824.498 115.3C824.498 100.007 837.879 88.8564 857.154 88.8564C871.81 88.8564 884.872 95.3876 890.925 104.627L878.022 116.256C873.243 108.769 865.279 104.468 856.039 104.468C848.234 104.468 843.136 107.972 843.136 113.547C843.136 119.601 849.189 120.716 859.703 122.946C873.881 125.973 891.722 128.999 891.722 148.115C891.722 165 876.27 175.833 857.314 175.833C841.862 175.833 826.41 169.62 818.923 158.151ZM904.807 174.08V59.705H923.922V99.37C928.701 93.7946 936.188 88.8564 947.02 88.8564C964.543 88.8564 975.057 100.963 975.057 118.964V174.08H955.941V124.539C955.941 114.185 951.799 106.698 941.286 106.698C932.684 106.698 923.922 113.07 923.922 125.017V174.08H904.807Z" fill="white"/>
<path d="M305.079 151.779L303.249 149.565L301.333 151.149L302.625 153.272L305.079 151.779ZM320.69 138.876L323.107 137.326L321.358 134.597L318.86 136.662L320.69 138.876ZM347.292 124.22L347.97 121.43L347.964 121.428L347.292 124.22ZM395.4 79.1393L397.275 81.3148L399.161 79.689L397.819 77.5912L395.4 79.1393ZM380.426 92.0423L378.013 93.5992L379.802 96.3715L382.301 94.2179L380.426 92.0423ZM355.735 106.22L355.1 109.02L355.107 109.022L355.735 106.22ZM306.908 153.992L322.519 141.089L318.86 136.662L303.249 149.565L306.908 153.992ZM318.272 140.426C326.675 153.534 339.468 161.341 353.664 161.341V155.598C341.736 155.598 330.634 149.067 323.107 137.326L318.272 140.426ZM353.664 161.341C360.505 161.341 366.797 159.785 371.467 156.496C376.241 153.133 379.156 148.052 379.156 141.584H373.413C373.413 146.107 371.47 149.469 368.159 151.801C364.744 154.206 359.727 155.598 353.664 155.598V161.341ZM379.156 141.584C379.156 138.147 378.259 135.239 376.449 132.825C374.676 130.46 372.192 128.787 369.387 127.488C363.933 124.963 356.241 123.439 347.97 121.43L346.614 127.011C355.389 129.143 362.192 130.486 366.973 132.7C369.286 133.771 370.854 134.936 371.854 136.27C372.816 137.554 373.413 139.207 373.413 141.584H379.156ZM347.964 121.428C339.282 119.338 330.879 117.123 324.609 112.881C318.591 108.811 314.481 102.833 314.481 92.6795H308.738C308.738 104.827 313.868 112.55 321.39 117.639C328.661 122.557 338.099 124.961 346.62 127.012L347.964 121.428ZM314.481 92.6795C314.481 82.984 318.606 75.1093 325.388 69.6002C332.217 64.0525 341.858 60.8245 352.868 60.8245V55.0809C340.779 55.0809 329.791 58.623 321.766 65.1422C313.694 71.6998 308.738 81.1885 308.738 92.6795H314.481ZM352.868 60.8245C371.555 60.8245 385.901 69.6241 392.981 80.6873L397.819 77.5912C389.607 64.7598 373.368 55.0809 352.868 55.0809V60.8245ZM393.525 76.9637L378.551 89.8668L382.301 94.2179L397.275 81.3148L393.525 76.9637ZM382.839 90.4855C376.122 80.0739 366.883 72.4443 352.231 72.4443V78.1879C364.34 78.1879 371.986 84.2579 378.013 93.5992L382.839 90.4855ZM352.231 72.4443C345.644 72.4443 339.824 74.1093 335.572 77.2464C331.26 80.4272 328.65 85.0776 328.65 90.6087H334.394C334.394 87.0598 336.005 84.064 338.981 81.8684C342.017 79.6292 346.551 78.1879 352.231 78.1879V72.4443ZM328.65 90.6087C328.65 93.5532 329.299 96.128 330.714 98.3373C332.116 100.528 334.126 102.134 336.477 103.394C341.022 105.831 347.53 107.304 355.1 109.02L356.37 103.419C348.488 101.631 342.89 100.316 339.191 98.3325C337.42 97.3827 336.274 96.3705 335.551 95.2405C334.84 94.1295 334.394 92.682 334.394 90.6087H328.65ZM355.107 109.022C364.508 111.129 374.138 113.155 381.499 117.564C385.113 119.729 388.072 122.414 390.141 125.881C392.205 129.339 393.484 133.744 393.484 139.513H399.228C399.228 132.857 397.739 127.405 395.073 122.938C392.413 118.48 388.682 115.172 384.451 112.637C376.121 107.648 365.441 105.452 356.363 103.418L355.107 109.022ZM393.484 139.513C393.484 159.81 375.665 172.961 353.027 172.961V178.705C377.541 178.705 399.228 164.138 399.228 139.513H393.484ZM353.027 172.961C334.201 172.961 315.82 163.902 307.532 150.286L302.625 153.272C312.179 168.967 332.666 178.705 353.027 178.705V172.961ZM487.449 165.956L485.717 163.665L483.416 165.405L485.166 167.699L487.449 165.956ZM508.954 178.859L511.182 180.671L514.044 177.152L509.639 176.07L508.954 178.859ZM497.166 193.355L496.372 196.115L498.196 196.64L499.394 195.167L497.166 193.355ZM471.201 173.762L473.722 172.387L472.596 170.322L470.349 171.019L471.201 173.762ZM406.053 116.893C406.053 83.485 427.323 60.8245 456.386 60.8245V55.0809C423.642 55.0809 400.309 80.8468 400.309 116.893H406.053ZM456.386 60.8245C485.449 60.8245 506.72 83.485 506.72 116.893H512.463C512.463 80.8468 489.13 55.0809 456.386 55.0809V60.8245ZM506.72 116.893C506.72 137.472 498.599 153.929 485.717 163.665L489.181 168.247C503.699 157.274 512.463 139.005 512.463 116.893H506.72ZM485.166 167.699C490.279 174.398 498.724 179.304 508.269 181.648L509.639 176.07C501.024 173.955 493.859 169.622 489.732 164.214L485.166 167.699ZM506.726 177.048L494.938 191.544L499.394 195.167L511.182 180.671L506.726 177.048ZM497.961 190.596C488.044 187.741 478.069 180.356 473.722 172.387L468.68 175.137C473.89 184.69 485.261 192.917 496.372 196.115L497.961 190.596ZM470.349 171.019C466.056 172.352 461.412 172.961 456.386 172.961V178.705C461.874 178.705 467.107 178.039 472.052 176.505L470.349 171.019ZM456.386 172.961C427.323 172.961 406.053 150.3 406.053 116.893H400.309C400.309 152.939 423.642 178.705 456.386 178.705V172.961ZM492.073 116.893C492.073 103.966 488.551 93.044 482.25 85.2927C475.912 77.4952 466.891 73.0815 456.386 73.0815V78.8251C465.157 78.8251 472.543 82.456 477.793 88.9155C483.082 95.4213 486.329 104.969 486.329 116.893H492.073ZM456.386 73.0815C445.882 73.0815 436.86 77.4952 430.522 85.2927C424.221 93.044 420.699 103.966 420.699 116.893H426.443C426.443 104.969 429.691 95.4213 434.979 88.9155C440.229 82.456 447.616 78.8251 456.386 78.8251V73.0815ZM420.699 116.893C420.699 129.819 424.221 140.741 430.522 148.493C436.86 156.29 445.882 160.704 456.386 160.704V154.96C447.616 154.96 440.229 151.329 434.979 144.87C429.691 138.364 426.443 128.817 426.443 116.893H420.699ZM456.386 160.704C466.891 160.704 475.912 156.29 482.25 148.493C488.551 140.741 492.073 129.819 492.073 116.893H486.329C486.329 128.817 483.082 138.364 477.793 144.87C472.543 151.329 465.157 154.96 456.386 154.96V160.704ZM523.843 174.08H520.972V176.952H523.843V174.08ZM523.843 59.705V56.8332H520.972V59.705H523.843ZM544.233 59.705H547.105V56.8332H544.233V59.705ZM544.233 156.239H541.362V159.111H544.233V156.239ZM598.076 156.239H600.948V153.367H598.076V156.239ZM598.076 174.08V176.952H600.948V174.08H598.076ZM526.715 174.08V59.705H520.972V174.08H526.715ZM523.843 62.5768H544.233V56.8332H523.843V62.5768ZM541.362 59.705V156.239H547.105V59.705H541.362ZM544.233 159.111H598.076V153.367H544.233V159.111ZM595.204 156.239V174.08H600.948V156.239H595.204ZM598.076 171.209H523.843V176.952H598.076V171.209ZM675.148 174.08V176.952H677.208L677.868 175.002L675.148 174.08ZM658.582 174.08L655.862 175.002L656.522 176.952H658.582V174.08ZM628.634 85.6705L631.354 84.7491L625.762 85.6705H628.634ZM628.634 174.08V176.952H631.505V174.08H628.634ZM609.677 174.08H606.806V176.952H609.677V174.08ZM609.677 59.705V56.8332H606.806V59.705H609.677ZM637.714 59.705L640.436 58.7894L639.778 56.8332H637.714V59.705ZM667.184 147.319L664.462 148.234L667.184 156.326L669.906 148.234L667.184 147.319ZM696.654 59.705V56.8332H694.59L693.932 58.7894L696.654 59.705ZM724.053 59.705H726.925V56.8332H724.053V59.705ZM724.053 174.08V176.952H726.925V174.08H724.053ZM705.096 174.08H702.225V176.952H705.096V174.08ZM705.096 85.6705H707.968L702.376 84.7491L705.096 85.6705ZM675.148 171.209H658.582V176.952H675.148V171.209ZM661.302 173.159L631.354 84.7491L625.914 86.5918L655.862 175.002L661.302 173.159ZM625.762 85.6705V174.08H631.505V85.6705H625.762ZM628.634 171.209H609.677V176.952H628.634V171.209ZM612.549 174.08V59.705H606.806V174.08H612.549ZM609.677 62.5768H637.714V56.8332H609.677V62.5768ZM634.992 60.6206L664.462 148.234L669.906 146.403L640.436 58.7894L634.992 60.6206ZM669.906 148.234L699.376 60.6206L693.932 58.7894L664.462 146.403L669.906 148.234ZM696.654 62.5768H724.053V56.8332H696.654V62.5768ZM721.181 59.705V174.08H726.925V59.705H721.181ZM724.053 171.209H705.096V176.952H724.053V171.209ZM707.968 174.08V85.6705H702.225V174.08H707.968ZM702.376 84.7491L672.429 173.159L677.868 175.002L707.816 86.5918L702.376 84.7491ZM814.934 136.486V139.358H817.806V136.486H814.934ZM756.313 136.486V133.614H753.14L753.455 136.772L756.313 136.486ZM798.049 146.203L799.066 143.518L796.174 142.423L795.295 145.388L798.049 146.203ZM814.456 152.416L817.121 153.488L818.215 150.768L815.473 149.73L814.456 152.416ZM757.269 122.15L754.485 121.444L753.578 125.021H757.269V122.15ZM795.659 122.15V125.021H798.581L798.531 122.1L795.659 122.15ZM778.615 172.961C767.407 172.961 758.028 168.831 751.439 161.802C744.837 154.759 740.866 144.623 740.866 132.345H735.122C735.122 145.873 739.514 157.48 747.249 165.73C754.996 173.994 765.927 178.705 778.615 178.705V172.961ZM740.866 132.345C740.866 109.116 756.415 91.7282 777.818 91.7282V85.9846C752.706 85.9846 735.122 106.509 735.122 132.345H740.866ZM777.818 91.7282C789.134 91.7282 797.586 95.9756 803.257 102.73C808.98 109.546 812.063 119.156 812.063 130.114H817.806C817.806 118.134 814.438 107.115 807.656 99.0368C800.821 90.8968 790.716 85.9846 777.818 85.9846V91.7282ZM812.063 130.114V136.486H817.806V130.114H812.063ZM814.934 133.614H756.313V139.358H814.934V133.614ZM753.455 136.772C754.222 144.437 756.933 150.867 761.34 155.411C765.778 159.986 771.754 162.456 778.615 162.456V156.713C773.209 156.713 768.752 154.802 765.463 151.412C762.145 147.991 759.838 142.872 759.17 136.201L753.455 136.772ZM778.615 162.456C789.049 162.456 797.829 157.053 800.802 147.019L795.295 145.388C793.171 152.558 786.978 156.713 778.615 156.713V162.456ZM797.032 148.889L813.44 155.102L815.473 149.73L799.066 143.518L797.032 148.889ZM811.792 151.344C806.359 164.854 794.233 172.961 778.615 172.961V178.705C796.449 178.705 810.766 169.289 817.121 153.488L811.792 151.344ZM777.659 102.074C772.128 102.074 767.082 103.734 763.009 107.09C758.948 110.436 756.039 115.312 754.485 121.444L760.052 122.855C761.365 117.677 763.714 113.951 766.661 111.523C769.598 109.103 773.313 107.817 777.659 107.817V102.074ZM757.269 125.021H795.659V119.278H757.269V125.021ZM798.531 122.1C798.441 116.918 796.782 111.881 793.229 108.112C789.639 104.306 784.377 102.074 777.659 102.074V107.817C783.047 107.817 786.706 109.568 789.05 112.053C791.43 114.577 792.718 118.142 792.788 122.199L798.531 122.1ZM818.923 158.151L817.129 155.908L815.093 157.537L816.518 159.721L818.923 158.151ZM833.26 146.681L835.714 145.19L834.017 142.398L831.466 144.439L833.26 146.681ZM890.925 104.627L892.848 106.76L894.677 105.112L893.328 103.053L890.925 104.627ZM878.022 116.256L875.602 117.801L877.426 120.659L879.945 118.389L878.022 116.256ZM859.703 122.946L860.303 120.138L860.299 120.137L859.703 122.946ZM820.717 160.393L835.054 148.924L831.466 144.439L817.129 155.908L820.717 160.393ZM830.806 148.173C836.267 157.157 846.757 163.093 857.473 163.093V157.35C848.755 157.35 840.129 152.454 835.714 145.19L830.806 148.173ZM857.473 163.093C861.801 163.093 866.264 162.341 869.752 160.344C873.396 158.259 875.956 154.789 875.956 149.867H870.212C870.212 152.432 869.029 154.14 866.898 155.36C864.612 156.669 861.269 157.35 857.473 157.35V163.093ZM875.956 149.867C875.956 147.575 875.383 145.53 874.06 143.808C872.779 142.138 870.991 141.033 869.041 140.211C865.296 138.634 859.812 137.688 853.43 136.381L852.277 142.008C859.117 143.409 863.748 144.215 866.812 145.505C868.267 146.118 869.059 146.724 869.504 147.305C869.909 147.833 870.212 148.575 870.212 149.867H875.956ZM853.43 136.381C846.714 135.006 840.161 133.569 835.242 130.488C832.845 128.987 830.914 127.135 829.567 124.762C828.223 122.393 827.37 119.341 827.37 115.3H821.627C821.627 120.179 822.665 124.236 824.572 127.596C826.476 130.953 829.155 133.452 832.193 135.356C838.146 139.085 845.771 140.675 852.277 142.008L853.43 136.381ZM827.37 115.3C827.37 102.11 838.894 91.7282 857.154 91.7282V85.9846C836.865 85.9846 821.627 97.9046 821.627 115.3H827.37ZM857.154 91.7282C871.074 91.7282 883.116 97.9481 888.523 106.201L893.328 103.053C886.628 92.827 872.546 85.9846 857.154 85.9846V91.7282ZM889.003 102.494L876.1 114.122L879.945 118.389L892.848 106.76L889.003 102.494ZM880.443 114.71C875.117 106.366 866.222 101.596 856.039 101.596V107.339C864.335 107.339 871.37 111.171 875.602 117.801L880.443 114.71ZM856.039 101.596C851.751 101.596 847.891 102.553 845.015 104.563C842.047 106.638 840.264 109.762 840.264 113.547H846.008C846.008 111.758 846.774 110.342 848.306 109.27C849.93 108.135 852.522 107.339 856.039 107.339V101.596ZM840.264 113.547C840.264 115.575 840.784 117.403 841.936 118.962C843.053 120.474 844.6 121.51 846.267 122.285C849.468 123.772 854.024 124.677 859.107 125.755L860.299 120.137C854.869 118.985 851.141 118.217 848.687 117.076C847.527 116.537 846.903 116.019 846.556 115.55C846.245 115.128 846.008 114.547 846.008 113.547H840.264ZM859.104 125.755C866.373 127.306 873.857 128.74 879.615 131.997C882.427 133.587 884.699 135.55 886.28 138.07C887.851 140.574 888.85 143.804 888.85 148.115H894.594C894.594 142.868 893.362 138.551 891.145 135.017C888.938 131.499 885.864 128.932 882.443 126.997C875.736 123.205 867.211 121.612 860.303 120.138L859.104 125.755ZM888.85 148.115C888.85 162.771 875.415 172.961 857.314 172.961V178.705C877.125 178.705 894.594 167.23 894.594 148.115H888.85ZM857.314 172.961C842.465 172.961 828.111 166.973 821.328 156.581L816.518 159.721C824.709 172.268 841.258 178.705 857.314 178.705V172.961ZM904.807 174.08H901.935V176.952H904.807V174.08ZM904.807 59.705V56.8332H901.935V59.705H904.807ZM923.922 59.705H926.794V56.8332H923.922V59.705ZM923.922 99.37H921.05V107.133L926.103 101.239L923.922 99.37ZM975.057 174.08V176.952H977.928V174.08H975.057ZM955.941 174.08H953.069V176.952H955.941V174.08ZM923.922 174.08V176.952H926.794V174.08H923.922ZM907.678 174.08V59.705H901.935V174.08H907.678ZM904.807 62.5768H923.922V56.8332H904.807V62.5768ZM921.05 59.705V99.37H926.794V59.705H921.05ZM926.103 101.239C930.441 96.1779 937.175 91.7282 947.02 91.7282V85.9846C935.201 85.9846 926.962 91.4113 921.742 97.5011L926.103 101.239ZM947.02 91.7282C955.086 91.7282 961.285 94.4928 965.489 99.0963C969.722 103.731 972.185 110.511 972.185 118.964H977.928C977.928 109.415 975.135 101.142 969.73 95.2232C964.297 89.2733 956.477 85.9846 947.02 85.9846V91.7282ZM972.185 118.964V174.08H977.928V118.964H972.185ZM975.057 171.209H955.941V176.952H975.057V171.209ZM958.813 174.08V124.539H953.069V174.08H958.813ZM958.813 124.539C958.813 119.05 957.727 113.884 954.862 110.024C951.89 106.019 947.306 103.826 941.286 103.826V109.569C945.779 109.569 948.523 111.12 950.25 113.447C952.085 115.919 953.069 119.673 953.069 124.539H958.813ZM941.286 103.826C931.252 103.826 921.05 111.333 921.05 125.017H926.794C926.794 114.806 934.115 109.569 941.286 109.569V103.826ZM921.05 125.017V174.08H926.794V125.017H921.05ZM923.922 171.209H904.807V176.952H923.922V171.209Z" fill="#0D0D0D" mask="url(#path-1-outside-1_39_2692)"/>
<path opacity="0.2" d="M117.577 111.314V61.5096C117.577 37.8484 98.1282 18.6672 74.467 18.6672V18.6672C50.8059 18.6672 31.3569 37.8484 31.3569 61.5096V105.337" stroke="#0830F7" stroke-width="17.2308"/>
<path opacity="0.4" d="M203.26 111.314V61.5096C203.26 37.8484 184.079 18.6672 160.417 18.6672H74.1972C50.536 18.6672 31.3548 37.8484 31.3548 61.5096V105.337" stroke="#0830F7" stroke-width="17.2308"/>
<path d="M117.039 109.707V159.511C117.039 183.173 136.488 202.354 160.149 202.354V202.354C183.81 202.354 203.259 183.173 203.259 159.511V115.684" stroke="#0830F7" stroke-width="17.2308"/>
<path opacity="0.2" d="M31.356 109.707V159.511C31.356 183.173 50.5371 202.354 74.1983 202.354H160.418C184.08 202.354 203.261 183.173 203.261 159.511V115.684" stroke="#0830F7" stroke-width="17.2308"/>
<path d="M29.3554 139.11C45.327 139.11 58.2747 126.162 58.2747 110.191C58.2747 94.2198 45.327 81.2725 29.3554 81.2725C13.3837 81.2725 0.436035 94.2198 0.436035 110.191C0.436035 126.162 13.3837 139.11 29.3554 139.11Z" fill="#0830F7"/>
<path d="M146.44 110.191C146.44 126.162 133.492 139.11 117.52 139.11C101.549 139.11 88.6011 126.162 88.6011 110.191C88.6011 94.2198 101.549 81.2725 117.52 81.2725C133.492 81.2725 146.44 94.2198 146.44 110.191Z" fill="#0830F7"/>
<path d="M203.259 139.11C219.231 139.11 232.179 126.162 232.179 110.191C232.179 94.2198 219.231 81.2725 203.259 81.2725C187.288 81.2725 174.34 94.2198 174.34 110.191C174.34 126.162 187.288 139.11 203.259 139.11Z" fill="#0830F7"/>
</svg>
